<?xml version="1.0" encoding="utf-8"?>
<!-- Generator: Adobe Illustrator 15.0.2, SVG Export Plug-In . SVG Version: 6.00 Build 0)  -->
<!DOCTYPE svg PUBLIC "-//W3C//DTD SVG 1.1//EN" "http://www.w3.org/Graphics/SVG/1.1/DTD/svg11.dtd">
<svg version="1.1" id="Layer_1" xmlns="http://www.w3.org/2000/svg" xmlns:xlink="http://www.w3.org/1999/xlink" x="0px" y="0px"
	 width="1224px" height="792px" viewBox="0 0 1224 792" enable-background="new 0 0 1224 792" xml:space="preserve">
<g id="Layer_1_1_" display="none">
	<g display="inline">
		<g>
			<polygon points="686.25,730.125 686.25,556.875 537.75,556.875 537.75,730.125 352.125,730.125 352.125,445.5 216,445.5 
				612,61.875 1008,445.5 871.875,445.5 871.875,730.125 			"/>
		</g>
	</g>
</g>
<g id="Layer_2">
	<g>
		<polygon fill="#26A69A" points="689.882,729.076 689.882,729.076 535.039,729.076 535.039,729.076 380.203,729.076 
			328.592,432.299 225.367,432.299 612.46,6.5 999.554,432.299 896.328,432.299 844.712,729.076 		"/>
		<path fill="#FFFFFF" d="M799.335,406.909c0-53.423-44.008-96.742-98.28-96.742c-41.438,0-76.809,25.278-91.261,60.979
			c-14.448-35.701-49.831-60.979-91.26-60.979c-54.28,0-98.282,43.318-98.282,96.742c0,0.851,0,5.354,0,6.913
			c0,80.817,133.086,117.771,189.542,228.052c55.864-109.997,190.131-145.711,189.541-228.052
			C799.311,412.265,799.335,407.76,799.335,406.909z"/>
		<path fill="#FFFFFF" d="M627.054,716.828c0,0,8.756-140.117,141.086-179.026c31.126,0,0,23.358,0,23.358
			s-23.36,15.551-23.36,23.339c0,7.786,62.271-15.564,77.847-77.837c15.562-62.271,38.911-33.564,38.911-15.561
			c0,18.003-15.562,93.396-31.137,116.757c-15.562,23.349-100.982,54.086-116.742,85.608c-7.79,15.573-6.822,22.382-6.822,22.382
			L627.054,716.828z"/>
		<path fill="#FFFFFF" d="M597.865,716.828c0,0-8.76-140.117-141.079-179.026c-31.136,0,0,23.358,0,23.358
			s23.35,15.551,23.35,23.339c0,7.786-62.271-15.564-77.835-77.837c-15.567-62.271-38.922-33.564-38.922-15.561
			c0,18.003,15.567,93.396,31.135,116.757c15.569,23.349,100.995,54.086,116.755,85.608c7.782,15.573,6.81,22.382,6.81,22.382
			L597.865,716.828z"/>
	</g>
</g>
</svg>
